<svg id="Capa_1" enable-background="new 0 0 512 512" height="512" viewBox="0 0 512 512" width="512" xmlns="http://www.w3.org/2000/svg"><g><path d="m76 150h100c8.284 0 15-6.716 15-15v-60c0-8.284-6.716-15-15-15h-100c-8.284 0-15 6.716-15 15v60c0 8.284 6.716 15 15 15zm15-60h70v30h-70z"/><path d="m76 210h40c8.284 0 15-6.716 15-15s-6.716-15-15-15h-40c-8.284 0-15 6.716-15 15s6.716 15 15 15z"/><path d="m156 240h-80c-8.284 0-15 6.716-15 15s6.716 15 15 15h80c8.284 0 15-6.716 15-15s-6.716-15-15-15z"/><path d="m436 60h-80c-8.284 0-15 6.716-15 15s6.716 15 15 15h80c8.284 0 15-6.716 15-15s-6.716-15-15-15z"/><path d="m216 180h-40c-8.284 0-15 6.716-15 15s6.716 15 15 15h40c8.284 0 15-6.716 15-15s-6.716-15-15-15z"/><path d="m316 180h-40c-8.284 0-15 6.716-15 15s6.716 15 15 15h40c8.284 0 15-6.716 15-15s-6.716-15-15-15z"/><path d="m416 180h-40c-8.284 0-15 6.716-15 15s6.716 15 15 15h40c8.284 0 15-6.716 15-15s-6.716-15-15-15z"/><path d="m457 0h-402c-30.327 0-55 24.673-55 55v220c0 30.327 24.673 55 55 55h89.771c-8.8 17.101-13.771 36.481-13.771 57 0 68.925 56.075 125 125 125s125-56.075 125-125c0-20.519-4.971-39.899-13.771-57h89.771c30.327 0 55-24.673 55-55v-220c0-30.327-24.673-55-55-55zm-201 482c-52.383 0-95-42.617-95-95s42.617-95 95-95 95 42.617 95 95-42.617 95-95 95zm226-207c0 13.785-11.215 25-25 25h-111.338c-22.731-23.42-54.524-38-89.662-38s-66.931 14.58-89.662 38h-111.338c-13.785 0-25-11.215-25-25v-220c0-13.785 11.215-25 25-25h402c13.785 0 25 11.215 25 25z"/><path d="m256 317c-8.284 0-15 6.716-15 15v60c0 8.284 6.716 15 15 15s15-6.716 15-15v-60c0-8.284-6.716-15-15-15z"/><circle cx="256" cy="442" r="15"/></g></svg>