<?xml version="1.0"?>
<svg xmlns="http://www.w3.org/2000/svg" viewBox="0 0 512 512" width="512" height="512"><g id="_09_Settings" data-name="09 Settings"><path d="M497,268.67a15,15,0,0,1-15-15V139a24.7,24.7,0,0,0-24.67-24.67H168.5a15,15,0,0,1,0-30H457.33A54.73,54.73,0,0,1,512,139V253.67A15,15,0,0,1,497,268.67Z"/><path d="M208.33,414.33H54.67A54.72,54.72,0,0,1,0,359.67V139A54.73,54.73,0,0,1,54.67,84.33H100.5a15,15,0,0,1,0,30H54.67A24.7,24.7,0,0,0,30,139V359.67a24.69,24.69,0,0,0,24.67,24.66H208.33a15,15,0,0,1,0,30Z"/><path d="M497,164.08H15a15,15,0,0,1,0-30H497a15,15,0,0,1,0,30Z"/><path d="M497,214.67H15a15,15,0,0,1,0-30H497a15,15,0,0,1,0,30Z"/><path d="M125.67,354.33H87a27,27,0,0,1-27-27V288.67a27,27,0,0,1,27-27h38.67a27,27,0,0,1,27,27v38.66A27,27,0,0,1,125.67,354.33ZM90,324.33h32.67V291.67H90Z"/><path d="M382,512c-71.68,0-130-58.32-130-130s58.32-130,130-130,130,58.32,130,130a129.54,129.54,0,0,1-8.32,45.84,15,15,0,0,1-28.07-10.58,99.95,99.95,0,1,0-49.31,54.42,15,15,0,0,1,13.31,26.89A128.76,128.76,0,0,1,382,512Z"/><path d="M361.5,443.41A15,15,0,0,1,350.89,439l-37.15-37.16A15,15,0,0,1,335,380.65L361.5,407.2l60.85-60.85a15,15,0,0,1,21.21,21.21L372.11,439A15,15,0,0,1,361.5,443.41Z"/></g></svg>
